<svg width="155" height="279" viewBox="0 0 155 279" fill="none" xmlns="http://www.w3.org/2000/svg">
<path d="M151.744 153.121L6.33822 1.71911C4.17188 -0.296279 1.06415 1.58109 1.06415 4.89405V123.94C1.06415 130.234 3.37794 136.212 7.37035 140.215L32.3683 162.95L31.4155 61.9874C31.4155 51.5516 38.5724 48.5561 46.0354 54.2295L145.789 158.27C146.515 158.933 146.934 159.954 146.946 161.059C146.957 162.163 146.56 163.185 145.959 163.778L43.6423 258.736C42.2358 257.632 40.5686 256.983 38.7765 256.983C33.8087 256.983 29.7822 261.883 29.7822 267.929C29.7822 273.975 33.8087 278.876 38.7765 278.876C43.7444 278.876 47.7708 273.975 47.7708 267.929C47.7708 267.281 47.7141 266.646 47.6233 266.024C47.8842 265.873 48.1337 265.707 48.3606 265.5L151.925 168.899C153.921 166.953 155.044 164.068 154.999 160.962C154.976 157.856 153.796 154.999 151.744 153.121Z" fill="url(#paint0_linear_101_3)"/>
<path d="M87.4 181.599C81.8197 181.599 77.3055 187.107 77.3055 193.885C77.3055 194.768 77.3849 195.638 77.5324 196.48C77.5324 196.48 77.5324 196.48 77.521 196.48L43.5742 227.29C38.7085 231.404 32.7199 227.981 32.6859 220.775L32.3002 193.084C32.2208 185.257 29.2038 177.9 24.1226 173.096L0.860001 151.134L1.35905 276.377C1.35905 278.517 3.34391 279.746 4.77301 278.503L83.0673 204.955C84.383 205.715 85.8461 206.156 87.4 206.156C92.9803 206.156 97.4944 200.649 97.4944 193.871C97.4944 187.107 92.9803 181.599 87.4 181.599ZM87.4 198.647C85.245 198.647 83.4869 196.521 83.4869 193.885C83.4869 191.262 85.2336 189.122 87.4 189.122C89.555 189.122 91.313 191.248 91.313 193.885C91.313 196.521 89.555 198.647 87.4 198.647Z" fill="url(#paint1_linear_101_3)"/>
<defs>
<linearGradient id="paint0_linear_101_3" x1="-66.229" y1="-342.314" x2="253.477" y2="415.436" gradientUnits="userSpaceOnUse">
<stop offset="0.2781" stop-color="#652D90"/>
<stop offset="0.7487" stop-color="#071C2C"/>
<stop offset="0.9815" stop-color="#001A27"/>
</linearGradient>
<linearGradient id="paint1_linear_101_3" x1="-49.7271" y1="-113.797" x2="90.9963" y2="219.738" gradientUnits="userSpaceOnUse">
<stop stop-color="#8AD3DD"/>
<stop offset="0.6138" stop-color="#0055A3"/>
<stop offset="0.8704" stop-color="#001A27"/>
</linearGradient>
</defs>
</svg>
